<mxfile host="app.diagrams.net" agent="Mozilla/5.0 (Windows NT 10.0; Win64; x64) AppleWebKit/537.36 (KHTML, like Gecko) Chrome/137.0.0.0 Safari/537.36" version="27.1.6">
  <diagram name="Page-1" id="J2FHUdrGR7X2YUpCgLXI">
    <mxGraphModel dx="1042" dy="527" grid="1" gridSize="10" guides="1" tooltips="1" connect="1" arrows="1" fold="1" page="1" pageScale="1" pageWidth="827" pageHeight="1169" math="0" shadow="0">
      <root>
        <mxCell id="0" />
        <mxCell id="1" parent="0" />
        <mxCell id="eGYfueU3lPUKsB2cFVtQ-6" value="" style="edgeStyle=orthogonalEdgeStyle;rounded=0;orthogonalLoop=1;jettySize=auto;html=1;" edge="1" parent="1" source="eGYfueU3lPUKsB2cFVtQ-2" target="eGYfueU3lPUKsB2cFVtQ-3">
          <mxGeometry relative="1" as="geometry" />
        </mxCell>
        <mxCell id="eGYfueU3lPUKsB2cFVtQ-7" value="Push" style="edgeLabel;html=1;align=center;verticalAlign=middle;resizable=0;points=[];labelBackgroundColor=none;" vertex="1" connectable="0" parent="eGYfueU3lPUKsB2cFVtQ-6">
          <mxGeometry x="-0.28" y="-1" relative="1" as="geometry">
            <mxPoint x="4" y="-8" as="offset" />
          </mxGeometry>
        </mxCell>
        <mxCell id="eGYfueU3lPUKsB2cFVtQ-2" value="&lt;font style=&quot;font-size: 14px;&quot;&gt;&lt;b&gt;GitHub&lt;/b&gt;&lt;/font&gt;" style="rounded=1;whiteSpace=wrap;html=1;" vertex="1" parent="1">
          <mxGeometry x="70" y="50" width="90" height="60" as="geometry" />
        </mxCell>
        <mxCell id="eGYfueU3lPUKsB2cFVtQ-8" value="" style="edgeStyle=orthogonalEdgeStyle;rounded=0;orthogonalLoop=1;jettySize=auto;html=1;" edge="1" parent="1" source="eGYfueU3lPUKsB2cFVtQ-3" target="eGYfueU3lPUKsB2cFVtQ-4">
          <mxGeometry relative="1" as="geometry" />
        </mxCell>
        <mxCell id="eGYfueU3lPUKsB2cFVtQ-3" value="&lt;font style=&quot;font-size: 14px;&quot;&gt;&lt;b&gt;Jenkins (CI/CD)&lt;/b&gt;&lt;/font&gt;" style="rounded=1;whiteSpace=wrap;html=1;" vertex="1" parent="1">
          <mxGeometry x="200" y="50" width="100" height="60" as="geometry" />
        </mxCell>
        <mxCell id="eGYfueU3lPUKsB2cFVtQ-4" value="&lt;font style=&quot;font-size: 14px;&quot;&gt;&lt;b&gt;Docker Compose&lt;/b&gt;&lt;/font&gt;" style="rounded=1;whiteSpace=wrap;html=1;" vertex="1" parent="1">
          <mxGeometry x="364" y="50" width="100" height="60" as="geometry" />
        </mxCell>
        <mxCell id="eGYfueU3lPUKsB2cFVtQ-5" value="&lt;font style=&quot;font-size: 14px;&quot;&gt;&lt;b&gt;Stack ELK (ES, LS, Kibana)&lt;/b&gt;&lt;/font&gt;" style="rounded=1;whiteSpace=wrap;html=1;" vertex="1" parent="1">
          <mxGeometry x="530" y="50" width="120" height="60" as="geometry" />
        </mxCell>
        <mxCell id="eGYfueU3lPUKsB2cFVtQ-9" value="Build&amp;amp;Test" style="text;html=1;align=center;verticalAlign=middle;resizable=0;points=[];autosize=1;strokeColor=none;fillColor=none;" vertex="1" parent="1">
          <mxGeometry x="290" y="58" width="80" height="30" as="geometry" />
        </mxCell>
        <mxCell id="eGYfueU3lPUKsB2cFVtQ-10" value="" style="edgeStyle=orthogonalEdgeStyle;rounded=0;orthogonalLoop=1;jettySize=auto;html=1;" edge="1" parent="1" source="eGYfueU3lPUKsB2cFVtQ-4" target="eGYfueU3lPUKsB2cFVtQ-5">
          <mxGeometry relative="1" as="geometry" />
        </mxCell>
        <mxCell id="eGYfueU3lPUKsB2cFVtQ-12" value="Lancement" style="edgeLabel;html=1;align=center;verticalAlign=middle;resizable=0;points=[];labelBackgroundColor=none;" vertex="1" connectable="0" parent="eGYfueU3lPUKsB2cFVtQ-10">
          <mxGeometry x="0.2" relative="1" as="geometry">
            <mxPoint x="-9" y="-7" as="offset" />
          </mxGeometry>
        </mxCell>
      </root>
    </mxGraphModel>
  </diagram>
</mxfile>
